<?xml version="1.0" standalone="no"?>
<!DOCTYPE svg PUBLIC "-//W3C//DTD SVG 20010904//EN"
 "http://www.w3.org/TR/2001/REC-SVG-20010904/DTD/svg10.dtd">
<svg version="1.0" xmlns="http://www.w3.org/2000/svg"
 width="129.000000pt" height="129.000000pt" viewBox="0 0 129.000000 129.000000"
 preserveAspectRatio="xMidYMid meet">
<metadata>
Created by potrace 1.11, written by Peter Selinger 2001-2013
</metadata>
<g transform="translate(0.000000,129.000000) scale(0.100000,-0.100000)"
fill="#000000" stroke="none">
<path d="M206 1205 c-9 -14 -22 -23 -28 -19 -7 4 -8 3 -4 -4 4 -7 2 -12 -3
-12 -6 0 -10 -3 -9 -7 4 -15 -34 -63 -45 -56 -6 3 -7 1 -3 -5 4 -7 2 -12 -3
-12 -6 0 -10 -3 -9 -8 2 -4 -3 -14 -9 -22 -42 -50 -64 -80 -59 -80 3 0 -2 -16
-10 -36 -15 -36 -16 -144 -1 -144 4 0 7 -8 7 -18 0 -19 74 -103 107 -120 14
-8 24 -9 28 -2 3 5 1 10 -4 10 -6 0 -22 23 -36 50 -14 28 -22 50 -18 50 4 0 2
5 -5 12 -15 15 -16 32 -2 23 6 -3 10 -1 10 4 0 6 -4 11 -10 11 -15 0 -12 33 5
57 8 12 12 29 8 39 -4 11 -3 15 5 10 6 -3 13 -2 17 4 3 5 2 10 -4 10 -6 0 -8
7 -5 15 4 8 10 13 14 10 4 -3 11 2 14 11 4 10 2 13 -7 7 -6 -4 -4 4 6 17 28
40 85 154 87 175 7 59 -7 71 -34 30z"/>
<path d="M265 1180 c-3 -5 -3 -10 1 -10 3 0 -1 -12 -11 -26 -9 -15 -12 -24 -7
-20 7 4 8 -3 2 -22 -12 -43 -29 -72 -42 -72 -6 0 -8 -3 -5 -7 4 -3 1 -13 -7
-22 -19 -21 -56 -116 -56 -142 0 -13 -4 -18 -12 -13 -7 5 -8 3 -3 -7 5 -7 10
-31 11 -52 1 -21 8 -45 16 -54 7 -9 11 -17 8 -19 -3 -2 2 -12 11 -22 9 -10 15
-25 14 -33 -4 -24 102 -22 137 2 15 11 28 17 28 13 0 -4 6 1 14 12 8 10 20 19
28 19 7 0 13 5 13 12 0 7 9 19 20 28 11 9 13 14 5 10 -8 -4 -4 3 10 15 14 12
19 19 13 15 -12 -6 -9 13 5 39 8 15 9 76 1 76 -3 0 -9 14 -13 32 -7 34 -76
158 -88 158 -10 0 -6 -43 4 -51 10 -7 12 -74 4 -116 -7 -35 -64 -133 -77 -133
-5 0 -8 -3 -7 -7 1 -5 -8 -28 -19 -53 -12 -25 -24 -53 -27 -62 -9 -29 -24 -21
-22 11 0 16 5 27 9 24 5 -3 6 5 2 17 -5 15 -4 20 4 16 7 -5 9 -1 5 8 -3 9 -1
16 5 16 6 0 11 8 11 18 0 10 7 27 16 38 8 10 12 13 8 5 -5 -10 -3 -12 5 -7 7
5 10 14 7 22 -3 8 5 21 20 31 20 12 24 22 19 40 -4 17 -2 23 6 18 8 -5 9 -1 4
15 -4 14 -3 20 3 16 9 -5 8 18 -3 94 -6 35 -50 140 -59 140 -3 0 -8 -4 -11
-10z"/>
<path d="M976 1094 c-16 -15 -10 -205 7 -216 8 -5 9 -11 2 -15 -8 -6 -12 -137
-6 -200 1 -9 17 -13 47 -13 38 0 45 3 42 18 -2 9 -11 16 -20 14 -9 -1 -18 4
-21 13 -4 8 -13 12 -22 9 -11 -5 -14 -2 -9 10 5 13 9 14 20 5 13 -10 18 -6 15
14 0 4 6 7 14 7 22 0 12 79 -12 99 -15 11 -15 13 -1 8 10 -4 22 2 31 16 17 25
69 48 87 37 7 -4 11 -39 12 -93 0 -73 3 -87 17 -88 14 0 14 -1 1 -7 -9 -4 -15
-13 -14 -19 1 -7 2 -19 3 -26 0 -8 8 -14 16 -14 8 0 11 5 8 10 -4 7 1 8 13 3
45 -19 47 -15 48 79 1 50 -2 96 -7 103 -6 7 -6 12 1 12 6 0 7 14 0 42 -10 48
-37 85 -49 67 -5 -8 -12 -8 -25 -1 -24 14 -63 -2 -91 -36 -16 -19 -23 -22 -23
-11 0 9 -14 21 -32 27 -27 10 -28 11 -5 7 18 -4 27 -1 28 7 0 7 1 29 3 50 2
27 -1 35 -11 31 -7 -3 -13 0 -13 6 0 6 6 10 12 9 7 -2 14 7 16 18 3 18 -3 22
-34 26 -20 2 -41 -1 -48 -8z m44 -44 c0 -5 -7 -10 -15 -10 -8 0 -15 5 -15 10
0 6 7 10 15 10 8 0 15 -4 15 -10z m150 -124 c0 -11 -19 -15 -25 -6 -3 5 1 10
9 10 9 0 16 -2 16 -4z"/>
<path d="M563 962 c-19 -3 -23 -10 -23 -37 0 -19 4 -36 9 -39 8 -5 16 -33 27
-96 2 -14 10 -47 16 -75 7 -27 11 -53 10 -56 -1 -4 16 -9 37 -11 39 -3 39 -3
49 42 18 82 48 174 54 164 3 -5 9 -25 13 -44 4 -19 10 -39 13 -45 4 -5 7 -14
7 -20 0 -5 4 -29 9 -53 8 -42 9 -43 44 -40 33 3 38 7 49 41 7 21 15 49 17 62
3 14 7 28 9 32 3 5 8 24 11 43 3 19 10 49 15 66 10 35 6 43 -28 62 -21 12 -23
12 -18 -2 3 -8 2 -18 -2 -20 -5 -3 -6 -18 -3 -32 3 -17 1 -25 -5 -21 -11 7
-33 -56 -33 -91 0 -46 -20 -29 -31 28 -6 33 -16 60 -21 60 -5 0 -7 4 -4 8 3 5
0 25 -6 45 -10 32 -15 36 -41 34 -28 -2 -31 -6 -44 -61 -7 -33 -11 -61 -9 -64
3 -2 -1 -11 -9 -19 -8 -8 -15 -23 -15 -35 0 -11 -5 -18 -12 -15 -7 2 -12 9
-11 14 1 6 -9 9 -23 7 -20 -2 -23 0 -14 11 8 10 7 14 -2 18 -8 4 -7 6 5 6 9 1
17 -4 17 -11 0 -6 3 -9 6 -5 7 7 -25 146 -35 150 -3 2 -16 1 -28 -1z m352 -42
c-3 -5 -12 -10 -18 -10 -7 0 -6 4 3 10 19 12 23 12 15 0z"/>
<path d="M1057 723 c-10 -9 -9 -23 1 -23 5 0 9 7 9 15 0 17 -1 18 -10 8z"/>
<path d="M88 566 c-18 -13 -13 -29 14 -39 11 -4 18 1 21 13 7 26 -14 42 -35
26z"/>
<path d="M168 569 c-22 -12 -12 -48 12 -42 10 3 20 13 23 24 3 10 1 17 -3 14
-5 -3 -10 -1 -12 4 -2 6 -9 6 -20 0z"/>
<path d="M242 571 c-17 -10 -5 -38 19 -44 14 -4 19 -1 16 8 -3 7 -1 18 4 24 5
6 6 9 3 6 -4 -3 -12 -1 -18 5 -7 5 -17 5 -24 1z"/>
<path d="M323 572 c-20 -13 -4 -50 18 -45 11 3 17 8 14 11 -2 3 1 12 7 21 7 9
8 13 4 9 -5 -4 -14 -4 -20 2 -7 5 -17 6 -23 2z"/>
<path d="M755 456 c0 -52 3 -98 8 -102 4 -4 7 1 8 12 4 68 5 80 12 92 10 15
34 16 43 1 4 -7 7 -31 8 -55 1 -46 15 -73 17 -33 5 94 -8 124 -52 115 -24 -5
-28 -2 -27 17 1 34 -1 47 -10 47 -4 0 -7 -42 -7 -94z"/>
<path d="M1249 545 c-5 -8 -5 -105 0 -167 1 -12 9 -18 24 -18 19 1 20 2 6 13
-12 9 -16 28 -15 74 1 66 -6 114 -15 98z"/>
<path d="M675 521 c-3 -6 -4 -15 -1 -20 4 -5 0 -12 -6 -15 -8 -4 -9 -8 -3 -11
6 -3 10 -26 9 -51 -2 -46 18 -80 38 -68 6 4 5 10 -3 15 -20 12 -22 99 -3 99 8
0 14 5 14 10 0 6 -6 9 -12 8 -7 -2 -13 5 -13 14 0 22 -11 32 -20 19z"/>
<path d="M1033 524 c3 -4 2 -15 -4 -26 -5 -10 -7 -24 -2 -31 4 -6 6 -24 4 -39
-4 -40 7 -65 29 -71 23 -6 27 8 5 17 -10 4 -15 20 -15 51 0 36 3 45 18 45 16
1 16 1 0 14 -10 7 -18 21 -18 30 0 9 -5 16 -12 16 -6 0 -8 -3 -5 -6z"/>
<path d="M12 480 c3 -8 11 -39 18 -67 8 -29 19 -53 26 -53 7 0 19 21 27 48
l13 47 18 -53 c10 -28 22 -50 27 -47 9 6 39 99 39 122 0 29 -18 2 -30 -44
l-12 -48 -14 47 c-19 63 -31 67 -45 16 -17 -61 -26 -66 -34 -20 -3 23 -14 47
-23 54 -13 11 -15 11 -10 -2z"/>
<path d="M217 484 c-15 -15 -6 -22 25 -20 23 1 33 -4 36 -16 3 -14 -3 -18 -26
-18 -35 0 -56 -21 -47 -49 7 -22 27 -31 65 -27 23 2 25 7 28 56 2 29 -1 57 -6
62 -12 12 -66 21 -75 12z m58 -90 c0 -25 -43 -32 -52 -9 -3 10 0 21 7 25 21
13 45 4 45 -16z"/>
<path d="M345 480 c-8 -14 -4 -120 5 -120 9 0 15 39 11 64 -1 4 1 17 5 28 4
15 12 19 30 15 16 -3 23 0 21 7 -4 11 -66 17 -72 6z"/>
<path d="M450 423 c0 -76 18 -85 22 -11 2 42 7 54 22 56 26 5 36 -15 36 -72 0
-65 18 -49 22 19 3 46 5 50 28 50 23 0 25 -4 28 -52 4 -67 22 -70 22 -4 0 52
-17 81 -49 81 -9 0 -22 -5 -29 -12 -8 -8 -15 -8 -24 0 -8 6 -28 10 -46 10
l-32 -1 0 -64z"/>
<path d="M907 472 c-23 -25 -21 -78 3 -102 24 -24 29 -24 58 -4 16 11 22 25
22 54 0 62 -47 92 -83 52z m61 -48 c2 -31 -1 -43 -14 -48 -24 -9 -44 12 -44
49 0 38 7 47 35 43 16 -2 21 -12 23 -44z"/>
<path d="M1126 474 c-9 -8 -16 -18 -17 -22 0 -4 -2 -15 -4 -26 -9 -45 30 -81
75 -69 28 7 25 25 -2 18 -26 -6 -45 4 -50 25 -2 11 7 15 36 15 44 0 54 19 29
54 -17 25 -46 27 -67 5z m54 -8 c0 -2 3 -11 6 -20 5 -12 -1 -16 -23 -16 -36 0
-46 9 -32 27 10 12 49 19 49 9z"/>
<path d="M954 329 c-3 -6 -78 -14 -229 -25 -38 -2 -81 -7 -95 -9 -14 -2 -52
-7 -85 -10 -33 -3 -78 -8 -100 -10 -22 -3 -60 -8 -85 -10 -25 -3 -54 -7 -65
-9 -11 -3 -32 -5 -47 -5 -19 -1 -25 -6 -23 -18 1 -10 -2 -24 -8 -30 -5 -7 -6
-13 -3 -13 4 0 2 -9 -4 -19 -7 -14 -7 -22 0 -26 6 -4 8 -15 5 -26 -3 -10 -8
-29 -11 -40 -6 -20 -4 -21 47 -15 30 4 77 9 104 12 28 2 60 7 73 10 12 2 57 7
100 10 66 4 147 12 292 30 19 2 60 6 90 9 97 7 134 16 180 43 25 15 50 27 55
27 6 0 12 11 13 24 2 15 0 21 -7 17 -6 -4 -11 -3 -11 3 0 5 7 14 17 19 15 9
14 11 -4 31 -11 12 -31 24 -44 27 -33 9 -150 10 -155 3z"/>
</g>
</svg>
